<svg width="68" height="68" viewBox="0 0 68 68" fill="none" xmlns="http://www.w3.org/2000/svg">
    <g filter="url(#uckivm117a)">
        <path d="M34 0C17.5 0 4 13.524 4 30.18 4 45.242 14.98 57.742 29.32 60V38.916H21.7V30.18h7.62v-6.657c0-7.56 4.47-11.717 11.34-11.717 3.27 0 6.69.572 6.69.572v7.44h-3.78c-3.72 0-4.89 2.32-4.89 4.7v5.662h8.34l-1.35 8.735h-6.99V60a29.97 29.97 0 0 0 18.15-10.21A30.192 30.192 0 0 0 64 30.18C64 13.525 50.5 0 34 0z" fill="#7C7C7C"/>
    </g>
    <defs>
        <filter id="uckivm117a" x="0" y="0" width="68" height="68" filterUnits="userSpaceOnUse" color-interpolation-filters="sRGB">
            <feFlood flood-opacity="0" result="BackgroundImageFix"/>
            <feColorMatrix in="SourceAlpha" values="0 0 0 0 0 0 0 0 0 0 0 0 0 0 0 0 0 0 127 0" result="hardAlpha"/>
            <feOffset dy="4"/>
            <feGaussianBlur stdDeviation="2"/>
            <feComposite in2="hardAlpha" operator="out"/>
            <feColorMatrix values="0 0 0 0 0 0 0 0 0 0 0 0 0 0 0 0 0 0 0.25 0"/>
            <feBlend in2="BackgroundImageFix" result="effect1_dropShadow_166612_3108"/>
            <feBlend in="SourceGraphic" in2="effect1_dropShadow_166612_3108" result="shape"/>
        </filter>
    </defs>
</svg>
